<?xml version="1.0" ?><svg viewBox="0 0 64 64" xmlns="http://www.w3.org/2000/svg"><title/><g data-name="Day 12" id="631c6931-77ed-4a45-bcde-56429968464a"><polygon data-name="&lt;Path&gt;" fill="#a895d8" id="24321604-8d08-407c-8f08-3fa7be4b0994" points="28 20 28 27 16 20 28 13 28 20"/><polygon data-name="&lt;Path&gt;" fill="#d859d8" id="970c71de-f55b-4761-a896-8e8cd55709d4" points="28 20 25 20 16 20 28 13 28 20"/><polygon data-name="&lt;Path&gt;" fill="#8859d8" id="a5a24e13-4bc4-4972-8a7c-bba0b5945beb" points="21 35.75 21 42.75 15.16 39.34 20.84 35.66 21 35.75"/><polygon data-name="&lt;Path&gt;" fill="#d859d8" id="fd9cf611-2541-4403-b06d-b7df986723b8" points="15 32.25 20.84 35.66 15.16 39.34 15 39.25 15 32.25"/><polygon data-name="&lt;Path&gt;" fill="#5983d8" id="35580b02-68e6-4816-8b15-300686839f85" points="9 21 12 27 12 41 12.32 41.19 8.27 43.83 8 43.67 8 20.33 8.57 20 9.33 20.44 9 21"/><polygon data-name="&lt;Path&gt;" fill="#5983d8" id="ba6ef632-c059-48f6-8da5-0c50864c4f63" points="19 26.09 19 31 18.96 31.06 12 27 9 21 9.33 20.44 19 26.09"/><polygon data-name="&lt;Path&gt;" fill="#5983d8" id="650d009a-8b54-40e5-9fea-bc6451b18fcb" points="28 31.35 28 55 28.15 55.26 28 55.35 26.67 54.57 27 54 24 48 24 34 23.68 33.81 27.72 31.18 28 31.35"/><polygon data-name="&lt;Path&gt;" fill="#5983d8" id="8ebb2293-ff71-4498-95b2-95cde033375f" points="24 48 27 54 26.67 54.57 17.78 49.38 18 49 18 45 18.22 44.63 24 48"/><polygon data-name="&lt;Path&gt;" fill="#5983d8" id="6d1b921e-e6d9-4a7e-b509-bade6bd0a2d6" points="18.22 44.63 18 45 18 49 17.78 49.38 8.27 43.83 12.32 41.19 18.22 44.63"/><polygon data-name="&lt;Path&gt;" fill="#5d59d8" id="86272fd0-6172-41f2-9525-cb5d7107efa1" points="24 34 24 48 18.22 44.63 12.32 41.19 15.16 39.34 21 42.75 21 35.75 20.84 35.66 23.68 33.81 24 34"/><polygon data-name="&lt;Path&gt;" fill="#7d59d8" id="01c8b930-9eaa-4a8a-8652-381a913e21e1" points="15 32.25 15 39.25 15.16 39.34 12.32 41.19 12 41 12 27 18.96 31.06 23.68 33.81 20.84 35.66 15 32.25"/><polygon data-name="&lt;Path&gt;" fill="#5983d8" id="f867b1f0-441b-4cde-b3b9-81bf44f1414e" points="27.72 31.18 23.68 33.81 18.96 31.06 19 31 19 26.09 27.72 31.18"/><path d="M28,20V13L16,20l12,7ZM28,8.65,47.43,20,28,31.35V31l-.28.18L19,26.09,9.33,20.44,8.57,20Z" data-name="&lt;Compound Path&gt;" fill="#8582d8" id="144419ba-3210-4694-a57f-92ceb11874e0"/><polyline data-name="&lt;Path&gt;" fill="none" id="02bf699d-f4b9-4ca7-86a1-d5c2ae88be61" points="47.43 20 48 20.33 48 38 48 43.67 28.15 55.26 28 55.35 26.67 54.57 17.78 49.38 8.27 43.83 8 43.67 8 20.33 8.57 20" stroke="#001c63" stroke-linecap="round" stroke-linejoin="round" stroke-width="2"/><polygon data-name="&lt;Path&gt;" fill="none" id="66dba08e-2f70-43e9-86cd-cad7fa642e81" points="47.43 20 28 31.35 27.72 31.18 19 26.09 9.33 20.44 8.57 20 28 8.65 47.43 20" stroke="#001c63" stroke-linecap="round" stroke-linejoin="round" stroke-width="2"/><polyline data-name="&lt;Path&gt;" fill="none" id="5d300391-fc3a-4ee2-8bba-870852e13d4b" points="28 31 28 31.35 28 55" stroke="#001c63" stroke-linecap="round" stroke-linejoin="round" stroke-width="2"/><polygon data-name="&lt;Path&gt;" fill="none" id="b415872f-234c-4c2e-83cb-07e0ab1c87ea" points="12 27 12 41 12.32 41.19 18.22 44.63 24 48 24 34 23.68 33.81 18.96 31.06 12 27" stroke="#001c63" stroke-linecap="round" stroke-linejoin="round" stroke-width="2"/><polygon data-name="&lt;Path&gt;" fill="none" id="97b3285f-e7d5-4241-8acd-3d66855d766c" points="20.84 35.66 15 32.25 15 39.25 15.16 39.34 21 42.75 21 35.75 20.84 35.66" stroke="#001c63" stroke-linecap="round" stroke-linejoin="round" stroke-width="2"/><polygon data-name="&lt;Path&gt;" fill="none" id="6060be80-e49c-470d-92c2-06c84652eaca" points="28 13 16 20 28 27 28 20 28 13" stroke="#001c63" stroke-linecap="round" stroke-linejoin="round" stroke-width="2"/><line data-name="&lt;Path&gt;" fill="none" id="131c3600-c8f4-40cf-93a2-66b285c5b8c5" stroke="#001c63" stroke-linecap="round" stroke-linejoin="round" stroke-width="2" x1="28" x2="46" y1="20" y2="20"/><polyline data-name="&lt;Path&gt;" fill="none" id="51ded413-b2fe-42ae-b397-0be689dbde97" points="19 26 19 26.09 19 31" stroke="#001c63" stroke-linecap="round" stroke-linejoin="round" stroke-width="2"/><polyline data-name="&lt;Path&gt;" fill="none" id="583c8314-dfac-4a33-9280-75b54e146e26" points="28 31 27.72 31.18 23.68 33.81 20.84 35.66 15.16 39.34 12.32 41.19 8.27 43.83" stroke="#001c63" stroke-linecap="round" stroke-linejoin="round" stroke-width="2"/><line data-name="&lt;Path&gt;" fill="none" id="3d95f0f1-c4c1-435e-bd27-55cfc2188650" stroke="#001c63" stroke-linecap="round" stroke-linejoin="round" stroke-width="2" x1="18" x2="18" y1="45" y2="49"/><line data-name="&lt;Path&gt;" fill="none" id="0670f5c1-18e0-4e56-b20d-6cf68f0d018c" stroke="#001c63" stroke-linecap="round" stroke-linejoin="round" stroke-width="2" x1="24" x2="27" y1="48" y2="54"/><line data-name="&lt;Path&gt;" fill="none" id="2eafbe49-21da-4d37-95e4-b403ddc57ac7" stroke="#001c63" stroke-linecap="round" stroke-linejoin="round" stroke-width="2" x1="9" x2="12" y1="21" y2="27"/><path d="M50.25,38.25l0-13.1L34.74,34.08l0,17.78,15.47-8.94ZM52,39v5.67L32.15,56.26,32,56V32.35L51.43,21l.57.33Z" data-name="&lt;Compound Path&gt;" fill="#5983d8" id="fa16a9eb-eadb-4a98-b118-bca6a740fd4b"/><path d="M40,36c2,0,2,2,4,2s2-2,4-2a3,3,0,0,1,2.26,1.25A2.32,2.32,0,0,0,52,38h0c2,0,2-2,4-2s2,2,4,2" data-name="&lt;Path&gt;" fill="none" id="4cfa411c-7bf7-45ff-a4b6-e86b4041930a" stroke="#001c63" stroke-linecap="round" stroke-linejoin="round" stroke-width="2"/></g></svg>